<?xml version="1.0" encoding="utf-8"?>
<!-- Generator: Adobe Illustrator 16.0.0, SVG Export Plug-In . SVG Version: 6.00 Build 0)  -->
<!DOCTYPE svg PUBLIC "-//W3C//DTD SVG 1.1//EN" "http://www.w3.org/Graphics/SVG/1.1/DTD/svg11.dtd">
<svg version="1.1" id="圖層_1" xmlns="http://www.w3.org/2000/svg" xmlns:xlink="http://www.w3.org/1999/xlink" x="0px" y="0px"
	 width="597.957px" height="597.954px" viewBox="0 0 597.957 597.954" enable-background="new 0 0 597.957 597.954"
	 xml:space="preserve">
<g>
	<path fill="#FF0033" d="M260.49,235.372c21.257,21.253,55.724,21.253,76.981,0l145.45-145.456c18.351-18.35,18.351-48.099,0-66.448
		c-18.351-18.351-48.098-18.351-66.45,0l-5.672,5.673c-61.76,61.76-161.886,61.76-223.646,0.004l-5.609-5.613
		c-0.021-0.022-0.039-0.042-0.06-0.064c-18.35-18.351-48.103-18.347-66.453,0c-18.347,18.35-18.347,48.098,0.008,66.448
		L260.49,235.372z"/>
	<path fill="#FF0033" d="M574.49,416.473l-5.675-5.672c-61.759-61.761-61.759-161.889,0-223.647l5.611-5.613
		c0.02-0.021,0.041-0.035,0.063-0.055c18.35-18.352,18.346-48.104-0.005-66.454c-18.351-18.35-48.095-18.346-66.443,0.004
		L362.591,260.49c-21.257,21.253-21.257,55.724,0,76.978l145.451,145.453c18.349,18.352,48.097,18.352,66.448,0
		C592.84,464.572,592.84,434.824,574.49,416.473z"/>
	<path fill="#FF0033" d="M337.472,362.586c-21.258-21.253-55.725-21.253-76.981,0L115.04,508.041
		c-18.35,18.347-18.35,48.099,0,66.448c18.347,18.347,48.099,18.347,66.445,0l5.673-5.673
		c61.764-61.765,161.892-61.765,223.646-0.004l5.613,5.613c0.021,0.021,0.035,0.042,0.055,0.06
		c18.353,18.351,48.104,18.351,66.454,0c18.351-18.352,18.347-48.098-0.004-66.444L337.472,362.586z"/>
	<path fill="#FF0033" d="M235.367,260.485L89.917,115.031c-18.351-18.35-48.099-18.35-66.449,0
		c-18.351,18.351-18.351,48.098,0,66.449l5.673,5.673c61.76,61.759,61.76,161.887,0,223.647l-5.609,5.613
		c-0.022,0.021-0.043,0.034-0.064,0.055c-18.351,18.352-18.346,48.104,0.004,66.452c18.346,18.352,48.094,18.348,66.445-0.004
		l145.45-145.454C256.624,316.21,256.624,281.738,235.367,260.485z"/>
</g>
</svg>
